HIERARCHY
ROOT Hips
{
	OFFSET 0.000000 89.005402 0.000000
	CHANNELS 6 Xposition Yposition Zposition Xrotation Yrotation Zrotation
	JOINT Spine
	{
		OFFSET 0.116900 10.681000 0.373400
		CHANNELS 3 Xrotation Yrotation Zrotation
		JOINT Spine1
		{
			OFFSET 0.000000 13.840401 0.053500
			CHANNELS 3 Xrotation Yrotation Zrotation
			JOINT Spine2
			{
				OFFSET 0.000000 14.712700 -0.366200
				CHANNELS 3 Xrotation Yrotation Zrotation
				JOINT Neck
				{
					OFFSET 0.000000 35.415497 -3.314200
					CHANNELS 3 Xrotation Yrotation Zrotation
					JOINT Head
					{
						OFFSET 0.000000 16.899200 1.218300
						CHANNELS 3 Xrotation Yrotation Zrotation
						JOINT HeadTop_End
						{
							OFFSET 0.000000 22.206207 2.192500
							CHANNELS 3 Xrotation Yrotation Zrotation
							End Site
							{
								OFFSET 0.000000 22.314178 0.000000
							}
						}
					}
				}
				JOINT LeftShoulder
				{
					OFFSET 12.896400 26.716293 -4.548400
					CHANNELS 3 Xrotation Yrotation Zrotation
					JOINT LeftArm
					{
						OFFSET 19.027000 -4.857010 -1.718400
						CHANNELS 3 Xrotation Yrotation Zrotation
						JOINT LeftForeArm
						{
							OFFSET 24.179897 0.000000 0.000000
							CHANNELS 3 Xrotation Yrotation Zrotation
							JOINT LeftHand
							{
								OFFSET 27.156403 0.000000 0.000000
								CHANNELS 3 Xrotation Yrotation Zrotation
								JOINT LeftHandIndex1
								{
									OFFSET 16.441200 0.000000 0.000000
									CHANNELS 3 Xrotation Yrotation Zrotation
									JOINT LeftHandIndex2
									{
										OFFSET 4.821899 0.000000 0.000000
										CHANNELS 3 Xrotation Yrotation Zrotation
										JOINT LeftHandIndex3
										{
											OFFSET 6.386497 0.000000 0.000000
											CHANNELS 3 Xrotation Yrotation Zrotation
											JOINT LeftHandIndex4
											{
												OFFSET 5.188988 0.000000 0.000000
												CHANNELS 3 Xrotation Yrotation Zrotation
												End Site
												{
													OFFSET -0.178703 5.185913 0.000177
												}
											}
										}
									}
								}
								JOINT LeftHandThumb1
								{
									OFFSET 6.534897 -5.032593 5.900300
									CHANNELS 3 Xrotation Yrotation Zrotation
									JOINT LeftHandThumb2
									{
										OFFSET 3.818176 -2.204422 2.204423
										CHANNELS 3 Xrotation Yrotation Zrotation
										JOINT LeftHandThumb3
										{
											OFFSET 3.252098 -1.877594 1.877601
											CHANNELS 3 Xrotation Yrotation Zrotation
											JOINT LeftHandThumb4
											{
												OFFSET 5.251778 -3.032120 3.032117
												CHANNELS 3 Xrotation Yrotation Zrotation
												End Site
												{
													OFFSET 0.000023 6.780014 0.000000
												}
											}
										}
									}
								}
							}
						}
					}
				}
				JOINT RightShoulder
				{
					OFFSET -12.896300 26.716293 -4.548400
					CHANNELS 3 Xrotation Yrotation Zrotation
					JOINT RightArm
					{
						OFFSET -19.027000 -4.857010 -1.718400
						CHANNELS 3 Xrotation Yrotation Zrotation
						JOINT RightForeArm
						{
							OFFSET -24.179897 0.000000 0.000000
							CHANNELS 3 Xrotation Yrotation Zrotation
							JOINT RightHand
							{
								OFFSET -27.156403 0.000000 0.000000
								CHANNELS 3 Xrotation Yrotation Zrotation
								JOINT RightHandThumb1
								{
									OFFSET -6.591202 -4.852203 5.988100
									CHANNELS 3 Xrotation Yrotation Zrotation
									JOINT RightHandThumb2
									{
										OFFSET -3.818176 -2.204422 2.204423
										CHANNELS 3 Xrotation Yrotation Zrotation
										JOINT RightHandThumb3
										{
											OFFSET -3.252098 -1.877594 1.877601
											CHANNELS 3 Xrotation Yrotation Zrotation
											JOINT RightHandThumb4
											{
												OFFSET -5.251778 -3.032120 3.032117
												CHANNELS 3 Xrotation Yrotation Zrotation
												End Site
												{
													OFFSET -0.000023 6.780014 0.000000
												}
											}
										}
									}
								}
								JOINT RightHandIndex1
								{
									OFFSET -16.029404 0.000000 0.000000
									CHANNELS 3 Xrotation Yrotation Zrotation
									JOINT RightHandIndex2
									{
										OFFSET -5.213303 0.000000 0.000000
										CHANNELS 3 Xrotation Yrotation Zrotation
										JOINT RightHandIndex3
										{
											OFFSET -6.386528 0.000000 0.000000
											CHANNELS 3 Xrotation Yrotation Zrotation
											JOINT RightHandIndex4
											{
												OFFSET -5.189026 0.000000 0.000000
												CHANNELS 3 Xrotation Yrotation Zrotation
												End Site
												{
													OFFSET 0.236702 5.183624 0.001972
												}
											}
										}
									}
								}
							}
						}
					}
				}
			}
		}
	}
	JOINT LeftUpLeg
	{
		OFFSET 14.073000 -7.904099 -1.463000
		CHANNELS 3 Xrotation Yrotation Zrotation
		JOINT LeftLeg
		{
			OFFSET -0.109806 -34.073280 4.093200
			CHANNELS 3 Xrotation Yrotation Zrotation
			JOINT LeftFoot
			{
				OFFSET 0.109806 -29.899420 -6.319000
				CHANNELS 3 Xrotation Yrotation Zrotation
				JOINT LeftToeBase
				{
					OFFSET 1.551100 -14.988700 20.535801
					CHANNELS 3 Xrotation Yrotation Zrotation
					JOINT LeftToe_End
					{
						OFFSET 0.221200 0.570800 13.248301
						CHANNELS 3 Xrotation Yrotation Zrotation
						End Site
						{
							OFFSET 0.000000 13.262435 0.000000
						}
					}
				}
			}
		}
	}
	JOINT RightUpLeg
	{
		OFFSET -13.839300 -7.904099 -1.463000
		CHANNELS 3 Xrotation Yrotation Zrotation
		JOINT RightLeg
		{
			OFFSET 0.109694 -34.073219 4.093300
			CHANNELS 3 Xrotation Yrotation Zrotation
			JOINT RightFoot
			{
				OFFSET -0.109694 -29.899384 -6.319200
				CHANNELS 3 Xrotation Yrotation Zrotation
				JOINT RightToeBase
				{
					OFFSET -1.551100 -14.988700 20.535801
					CHANNELS 3 Xrotation Yrotation Zrotation
					JOINT RightToe_End
					{
						OFFSET -0.221200 0.570900 13.248299
						CHANNELS 3 Xrotation Yrotation Zrotation
						End Site
						{
							OFFSET 0.000000 13.262440 0.000000
						}
					}
				}
			}
		}
	}
}
MOTION
Frames: 6
Frame Time: 0.033333
13.441093 84.903458 -0.798813 -9.380337 -18.222890 -5.608852 10.083761 -15.489749 -6.255168 1.028889 -2.111478 2.152513 1.119512 -2.055777 2.162470 0.026614 0.588094 -2.017259 -0.957485 -1.137281 5.996495 -0.000000 0.000001 -0.000000 0.586731 -2.931985 -9.395969 -18.083278 -29.134298 -44.506418 -0.000030 -75.439535 -0.000047 53.840032 14.474832 9.992250 -2.285327 -7.293296 -16.144168 0.000000 0.000000 -0.000049 0.005622 -0.278749 2.310514 0.000000 0.000001 0.000001 -0.008584 5.845955 9.362607 2.538559 9.828604 0.335383 -3.297986 -3.251828 3.253917 0.000002 0.000001 0.000000 0.555800 -1.049645 8.848101 -32.378372 -0.793354 28.243884 0.000036 59.011441 -0.000036 17.019621 11.067318 -24.286063 1.298322 -21.599404 -11.157729 2.443792 -6.962349 1.141951 -3.518690 -6.718107 -4.129132 0.000006 0.000000 -0.000002 -0.026263 -0.584586 -2.163543 2.990129 -5.715189 55.207879 0.507759 -2.612825 21.990721 0.000002 -0.000004 0.000002 0.923474 -2.611276 1.348001 35.362300 5.980369 -9.371663 -20.954117 7.758683 5.579766 -11.307229 0.000000 0.000001 0.000000 0.000000 0.000000 -19.110693 7.435580 5.898262 29.519278 -10.688926 2.324710 -21.137293 -20.320308 -7.701858 -5.695934 -0.000015 -0.000005 -0.000002 0.000001 0.000001 
14.113571 84.876160 -1.264639 -9.985625 -22.875154 -5.935459 9.743056 -11.501690 -4.392713 0.945797 -1.551832 0.917570 0.981922 -1.525147 0.925466 0.396253 0.178388 -3.684490 0.054640 -5.423673 6.378009 -0.000000 0.000003 -0.000000 0.621932 -2.241426 -12.878661 -16.422179 -26.915754 -43.180029 0.000005 -67.106533 0.000026 43.611523 13.538954 11.629841 -2.143942 -6.701234 -16.242806 -0.000003 0.000077 -0.000624 0.005433 -0.273973 2.270904 0.000001 -0.000001 0.000000 -0.043014 6.513172 9.610125 2.532619 9.830151 0.371818 -3.176153 -2.965332 3.203087 0.000000 -0.000001 -0.000001 0.627835 1.088208 11.582292 -34.875001 4.521275 34.864796 -0.000022 49.126108 0.000009 12.215530 17.184208 -27.903879 1.954929 -22.787511 -11.636520 2.444632 -6.963319 1.141523 -2.815352 -7.332276 -4.037492 0.000001 -0.000002 -0.000000 -0.043430 -0.351635 -4.170328 3.894886 -6.244352 63.876175 0.650586 -2.941503 24.938120 0.000001 -0.000005 -0.000001 1.955440 -8.007183 0.157987 32.133516 4.225218 -6.637867 -20.416716 1.850791 4.929378 -7.941598 -0.000011 -0.000000 0.000000 0.000001 0.000000 -18.377891 3.439676 4.077178 29.343411 -10.767744 4.700927 -23.165008 -28.390176 -14.186260 -5.644316 0.000007 0.000007 0.000001 -0.000001 -0.000000 
14.683183 84.302948 -1.690944 -11.028376 -29.631297 -5.611921 9.461993 -5.276492 -3.018526 0.903704 -0.658971 -1.081402 0.901686 -0.671596 -1.078000 0.516162 -0.407108 -4.906959 1.235076 -10.244818 7.975587 -0.000000 -0.000002 -0.000000 0.695047 -1.208853 -15.117642 -13.720937 -27.364776 -40.687065 -0.000056 -56.694170 -0.000059 31.495293 10.690955 12.948661 -2.069246 -6.268369 -16.516915 -0.000002 0.000041 -0.000352 0.005298 -0.270627 2.243005 -0.000000 0.000001 0.000001 -0.104814 7.280883 9.756620 2.520765 9.829989 0.442275 -3.104465 -2.492305 3.092548 -0.000001 0.000001 0.000000 0.585427 3.583042 14.106972 -32.847158 13.517642 38.456301 0.000002 34.020715 -0.000010 -0.865227 25.191093 -33.271948 2.398090 -23.924831 -12.080050 2.445030 -6.965076 1.140882 -2.213904 -7.842106 -3.957556 0.000001 0.000001 -0.000001 -0.048804 -0.405505 -4.272119 4.241780 -6.401865 67.025268 0.735178 -3.116705 26.538613 0.000000 -0.000000 0.000001 5.086835 -12.217787 -2.706261 26.572492 5.479853 -6.231248 -21.691275 2.854851 5.508858 -3.506636 0.000010 -0.000000 -0.000000 -0.000000 -0.000000 -18.983293 -0.044845 0.085176 31.417982 -10.488320 9.121291 -24.133794 -30.185410 -18.445462 -3.367090 -0.000018 -0.000004 0.000000 0.000000 -0.000000 
14.993465 83.093445 -2.112556 -12.327179 -37.250667 -4.161431 9.146148 1.881074 -3.624098 1.427798 0.355790 -3.188105 1.441915 0.313850 -3.185500 0.003484 -1.122063 -5.538247 2.013589 -14.974664 10.055351 0.000000 0.000001 0.000000 0.782852 0.002116 -16.104896 -11.514548 -29.526160 -38.223538 -0.000009 -43.982300 -0.000007 23.171145 5.977175 12.048192 -2.070993 -6.008749 -17.009273 0.000001 -0.000003 -0.000023 0.005233 -0.269233 2.231557 0.000002 0.000001 -0.000005 -0.150100 8.118044 9.784182 2.498082 9.823935 0.540598 -2.951218 -1.876418 2.959552 -0.000001 0.000000 -0.000000 0.452463 6.242182 15.241606 -22.164833 32.027973 38.099786 0.000005 15.012879 -0.000015 -32.425121 32.885575 -33.899260 2.739452 -24.940692 -12.394295 2.444690 -6.967301 1.140159 -1.814417 -8.178344 -3.899119 0.000001 -0.000002 0.000001 -0.034794 -0.719833 -2.380916 3.954499 -6.273080 64.423130 0.732508 -3.111391 26.489726 0.000001 -0.000002 0.000000 5.402471 -14.496252 -7.943752 25.259114 7.853930 -7.361440 -23.580470 9.609168 7.591859 -1.680514 -0.000012 -0.000001 0.000000 0.000002 0.000000 -21.797367 -2.871513 -4.017247 36.622313 -10.512246 10.891617 -24.415881 -29.858766 -19.334454 -1.728300 0.000020 -0.000005 0.000000 0.000000 0.000000 
15.099951 81.580635 -2.529109 -12.591901 -42.351807 -1.412771 7.947071 7.166242 -5.320610 2.932524 0.993748 -5.018432 2.993088 0.961193 -4.987388 -1.353640 -1.820742 -5.715081 1.683734 -18.902545 11.940106 -0.000000 -0.000000 -0.000000 0.850902 1.003703 -16.408879 -1.835310 -36.778195 -28.817535 0.000010 -30.628344 0.000009 12.992806 4.262008 11.577298 -2.152280 -5.885388 -17.793148 -0.000006 0.000002 0.000003 0.005264 -0.269673 2.235237 -0.000001 0.000002 -0.000003 -0.109743 8.968476 9.683175 2.410413 9.815533 0.647230 -2.390470 -1.267068 2.895572 0.000001 -0.000001 -0.000001 0.366451 8.648056 14.476292 -16.428898 42.415581 42.285124 -0.000000 9.150858 -0.000010 -54.279841 27.886669 -30.981410 3.134187 -25.752284 -12.468556 2.442392 -6.969355 1.139694 -1.791733 -8.286851 -3.854290 -0.000001 -0.000000 -0.000000 0.028432 -1.188851 1.430864 3.163859 -5.831478 56.934982 0.639309 -2.917172 24.717481 -0.000000 -0.000002 -0.000000 4.992096 -8.900622 -12.413604 26.676624 7.652163 -6.097107 -25.380027 10.123063 7.364324 -1.181726 0.000003 0.000002 -0.000000 0.000000 0.000000 -26.229185 -4.930290 -8.545750 42.928996 -10.625738 10.724287 -24.014670 -29.920484 -17.793852 -3.374760 -0.000012 0.000005 0.000000 0.000000 -0.000000 
14.965585 80.784424 -2.887796 -11.638133 -43.285494 1.158800 6.486178 9.517059 -6.231853 4.335997 1.155747 -6.340262 4.433360 1.153300 -6.273617 -2.848671 -2.443686 -5.370075 1.198656 -21.517949 12.997068 -0.000000 0.000001 0.000000 0.865558 1.214225 -16.468266 17.252972 -46.084294 -14.465412 -0.000003 -10.770976 0.000001 2.372056 1.749218 11.387539 -2.279783 -5.757548 -18.901611 0.000009 -0.000019 -0.000020 0.005320 -0.271041 2.246473 -0.000001 -0.000000 -0.000000 0.020033 9.730943 9.481870 2.367684 9.794700 0.738848 -1.687669 -0.732764 2.893481 0.000001 0.000000 0.000002 0.375260 9.041986 14.050381 -12.484770 54.614377 45.748665 0.000005 8.488873 -0.000001 -54.448520 18.423955 -24.061133 3.632961 -26.298860 -12.272864 2.439527 -6.969711 1.139856 -2.052815 -8.180058 -3.841561 0.000003 0.000001 0.000002 0.142476 -1.635029 6.600338 2.252489 -5.127086 47.412267 0.501527 -2.597367 21.853656 -0.000000 -0.000001 -0.000000 4.419491 -4.229986 -13.295508 27.876847 5.170071 -6.279594 -25.895906 7.484525 7.509441 -1.309157 0.000014 0.000002 0.000000 0.000003 0.000000 -28.867897 -6.799776 -13.184289 47.444434 -10.497138 10.501398 -23.009145 -26.092178 -14.008624 -4.086642 0.000028 0.000000 -0.000001 0.000001 -0.000000 
